<svg width="90" height="90" viewBox="0 0 90 90" fill="none" xmlns="http://www.w3.org/2000/svg"><path d="M53.438 70.65a2.197 2.197 0 01-.297 0 2.25 2.25 0 01-1.652-1.107l-5.278-9.144-5.261-.814A12.412 12.412 0 0130.415 49.05l-.778-5.265-9.144-5.274a2.248 2.248 0 01-.468-3.537L27.981 27a2.25 2.25 0 011.588-.657H44.55l11.142-11.146a14.539 14.539 0 0111.7-4.208l8.757.823a2.25 2.25 0 012.03 2.03l.823 8.757a14.534 14.534 0 01-4.207 11.7L63.639 45.45v14.98a2.25 2.25 0 01-.657 1.59l-7.956 7.955a2.25 2.25 0 01-1.589.675zM25.28 36.081l7.569 4.356a2.252 2.252 0 011.102 1.62l.937 6.34a7.943 7.943 0 006.75 6.75l6.34.937a2.251 2.251 0 011.62 1.102l4.356 7.547 5.22-5.225v-14.99a2.25 2.25 0 01.662-1.588L71.64 31.127a10.077 10.077 0 002.912-8.1l-.653-6.904-6.939-.639a10.084 10.084 0 00-8.1 2.912L47.07 30.199a2.25 2.25 0 01-1.589.662H30.505l-5.224 5.22z" fill="url(#paint0_linear_2_34)"/><path d="M13.19 79.06a2.25 2.25 0 01-1.589-3.843L27.5 59.32a2.25 2.25 0 113.18 3.18L14.782 78.4a2.249 2.249 0 01-1.592.662z" fill="url(#paint1_linear_2_34)"/><path d="M13.01 60.809a2.25 2.25 0 01-1.594-3.839l9.491-9.495a2.251 2.251 0 113.186 3.181l-9.495 9.495a2.25 2.25 0 01-1.589.657z" fill="url(#paint2_linear_2_34)"/><path d="M31.257 79.06a2.25 2.25 0 01-1.588-3.842l9.481-9.49a2.25 2.25 0 113.181 3.18L32.85 78.4a2.25 2.25 0 01-1.593.662z" fill="url(#paint3_linear_2_34)"/><path d="M63.45 32.85a6.3 6.3 0 110-12.6 6.3 6.3 0 010 12.6zm0-8.1a1.8 1.8 0 100 3.6 1.8 1.8 0 000-3.6z" fill="url(#paint4_linear_2_34)"/><defs><linearGradient id="paint0_linear_2_34" x1="49.218" y1="10.921" x2="49.218" y2="70.655" gradientUnits="userSpaceOnUse"><stop stop-color="#F36E2F"/><stop offset="1" stop-color="#FFA519"/></linearGradient><linearGradient id="paint1_linear_2_34" x1="21.154" y1="58.632" x2="21.154" y2="79.061" gradientUnits="userSpaceOnUse"><stop stop-color="#F36E2F"/><stop offset="1" stop-color="#FFA519"/></linearGradient><linearGradient id="paint2_linear_2_34" x1="17.756" y1="46.815" x2="17.756" y2="60.809" gradientUnits="userSpaceOnUse"><stop stop-color="#F36E2F"/><stop offset="1" stop-color="#FFA519"/></linearGradient><linearGradient id="paint3_linear_2_34" x1="36.013" y1="65.04" x2="36.013" y2="79.061" gradientUnits="userSpaceOnUse"><stop stop-color="#F36E2F"/><stop offset="1" stop-color="#FFA519"/></linearGradient><linearGradient id="paint4_linear_2_34" x1="63.45" y1="20.25" x2="63.45" y2="32.85" gradientUnits="userSpaceOnUse"><stop stop-color="#F36E2F"/><stop offset="1" stop-color="#FFA519"/></linearGradient></defs></svg>