<svg width="90" height="90" viewBox="0 0 90 90" fill="none" xmlns="http://www.w3.org/2000/svg"><g clip-path="url(#clip0_2_28)"><mask id="a" maskUnits="userSpaceOnUse" x="6" y="-1" width="77" height="77" fill="#000"><path fill="#fff" d="M6-1h77v77H6z"/><path d="M49.927 17.277h12.246a1.14 1.14 0 011.14 1.136 1.136 1.136 0 01-1.14 1.137H49.927a1.14 1.14 0 01-1.139-1.137 1.136 1.136 0 011.139-1.136zm-7.48 2.273h1.412a1.14 1.14 0 001.139-1.137 1.136 1.136 0 00-1.139-1.136h-1.413a1.14 1.14 0 00-1.138 1.136 1.136 1.136 0 001.138 1.137zm7.48-7.577h12.246a1.14 1.14 0 001.078-1.135 1.135 1.135 0 00-1.078-1.135H49.927a1.14 1.14 0 00-1.077 1.135 1.136 1.136 0 001.077 1.135zm-7.48 15.15h9.207a1.14 1.14 0 001.077-1.135 1.135 1.135 0 00-1.077-1.134h-9.208a1.14 1.14 0 00-1.077 1.134 1.136 1.136 0 001.077 1.136zm0 7.574h6.17a1.14 1.14 0 001.078-1.135 1.135 1.135 0 00-1.077-1.135h-6.172a1.14 1.14 0 00-1.077 1.135 1.135 1.135 0 001.077 1.135zm0 7.577h6.17a1.14 1.14 0 001.14-1.137A1.136 1.136 0 0048.617 40h-6.17a1.14 1.14 0 00-1.14 1.137 1.136 1.136 0 001.14 1.137zm10.352 6.436a1.136 1.136 0 00-1.139-1.133h-9.214a1.142 1.142 0 00-1.107.686 1.136 1.136 0 001.107 1.584h9.208a1.14 1.14 0 001.138-1.137h.007zM42.446 11.973h1.413a1.14 1.14 0 001.077-1.135 1.135 1.135 0 00-1.077-1.135h-1.413a1.14 1.14 0 00-1.077 1.135 1.135 1.135 0 001.077 1.135zm19.727 50.75H49.927a1.14 1.14 0 00-1.139 1.137 1.135 1.135 0 001.139 1.137h12.246a1.14 1.14 0 001.14-1.137 1.136 1.136 0 00-1.14-1.136zm-18.314 0h-1.413a1.14 1.14 0 00-1.138 1.137 1.135 1.135 0 001.138 1.137h1.413a1.14 1.14 0 001.139-1.137 1.136 1.136 0 00-1.139-1.136zm4.933-6.436a1.132 1.132 0 001.135 1.133h12.246a1.141 1.141 0 001.108-.686 1.136 1.136 0 00-1.108-1.584H49.927a1.137 1.137 0 00-1.135 1.137zm-4.933-1.137h-1.413a1.14 1.14 0 00-1.077 1.135 1.135 1.135 0 001.077 1.135h1.413a1.14 1.14 0 001.077-1.135 1.136 1.136 0 00-1.077-1.135zm24.606-2.95v21.647a1.142 1.142 0 01-1.159 1.13 1.147 1.147 0 01-.57-.16l-6.917-4.187c-.134 0-7.548 4.747-7.51 4.354.02.383-7.368-4.334-7.508-4.354l-6.92 4.187a1.147 1.147 0 01-1.726-.97V53.554H15.429a8.447 8.447 0 01-5.957-2.468A8.415 8.415 0 017 45.14V19.903a1.145 1.145 0 011.17-1.128c.203.004.4.06.573.165l6.68 4.17 6.154-3.837V8.42a8.466 8.466 0 012.483-5.935A8.497 8.497 0 0130.003 0H60.04a8.444 8.444 0 015.957 2.467 8.412 8.412 0 012.47 5.946V22.78c3.691.314 7.13 2 9.637 4.724A14.749 14.749 0 0182 37.49c0 3.699-1.39 7.262-3.897 9.986a14.802 14.802 0 01-9.638 4.724zm-46.888-7.06V21.953l-5.56 3.46a1.14 1.14 0 01-1.206 0l-5.533-3.46V45.14a6.13 6.13 0 001.75 4.434 6.152 6.152 0 004.4 1.85 6.16 6.16 0 004.4-1.85 6.14 6.14 0 001.75-4.434zM36.155 8.413a6.141 6.141 0 00-1.804-4.34 6.164 6.164 0 00-4.348-1.8 6.16 6.16 0 00-4.347 1.8 6.138 6.138 0 00-1.801 4.34V45.14a8.373 8.373 0 01-2.672 6.14h14.972V8.413zM66.187 52.2c-3.691-.314-7.13-2-9.637-4.724a14.748 14.748 0 010-19.972 14.802 14.802 0 019.638-4.724V8.413a6.138 6.138 0 00-1.802-4.34 6.161 6.161 0 00-4.347-1.8H35.757a8.382 8.382 0 012.672 6.14v63.414a64.984 64.984 0 016.368-3.667c-.026-.393 7.374 4.334 7.508 4.334l6.923-4.16a1.134 1.134 0 011.179 0l5.78 3.496V52.2zm1.14-27.2a12.535 12.535 0 00-8.856 3.661 12.488 12.488 0 00-3.668 8.84 12.49 12.49 0 003.668 8.838A12.535 12.535 0 0067.326 50a12.54 12.54 0 008.856-3.66 12.488 12.488 0 003.668-8.84c0-3.315-1.32-6.494-3.668-8.839a12.535 12.535 0 00-8.856-3.66zm0 11.364c-1.854 0-2.793-.82-2.793-2.43-.066-2.687 4.492-3.297 5.414-.83a1.138 1.138 0 001.491.608 1.138 1.138 0 00.61-1.489 4.918 4.918 0 00-3.6-2.863c.056-.883.036-2.076-1.14-2.093-1.175-.017-1.195 1.21-1.138 2.09a4.68 4.68 0 00-3.117 1.76 4.663 4.663 0 00.805 6.554 4.685 4.685 0 003.45.956c1.864 0 2.806.82 2.806 2.43.067 2.687-4.492 3.297-5.414.83a1.134 1.134 0 00-1.49-.607c-2.14 1.457 1.303 4.127 2.96 4.334-.054.88-.037 2.073 1.139 2.093 1.175.02 1.195-1.207 1.138-2.087a4.678 4.678 0 003.055-1.779 4.66 4.66 0 00-.79-6.488 4.681 4.681 0 00-3.393-.996l.006.007z"/></mask><path d="M49.927 17.277h12.246a1.14 1.14 0 011.14 1.136 1.136 1.136 0 01-1.14 1.137H49.927a1.14 1.14 0 01-1.139-1.137 1.136 1.136 0 011.139-1.136zm-7.48 2.273h1.412a1.14 1.14 0 001.139-1.137 1.136 1.136 0 00-1.139-1.136h-1.413a1.14 1.14 0 00-1.138 1.136 1.136 1.136 0 001.138 1.137zm7.48-7.577h12.246a1.14 1.14 0 001.078-1.135 1.135 1.135 0 00-1.078-1.135H49.927a1.14 1.14 0 00-1.077 1.135 1.136 1.136 0 001.077 1.135zm-7.48 15.15h9.207a1.14 1.14 0 001.077-1.135 1.135 1.135 0 00-1.077-1.134h-9.208a1.14 1.14 0 00-1.077 1.134 1.136 1.136 0 001.077 1.136zm0 7.574h6.17a1.14 1.14 0 001.078-1.135 1.135 1.135 0 00-1.077-1.135h-6.172a1.14 1.14 0 00-1.077 1.135 1.135 1.135 0 001.077 1.135zm0 7.577h6.17a1.14 1.14 0 001.14-1.137A1.136 1.136 0 0048.617 40h-6.17a1.14 1.14 0 00-1.14 1.137 1.136 1.136 0 001.14 1.137zm10.352 6.436a1.136 1.136 0 00-1.139-1.133h-9.214a1.142 1.142 0 00-1.107.686 1.136 1.136 0 001.107 1.584h9.208a1.14 1.14 0 001.138-1.137h.007zM42.446 11.973h1.413a1.14 1.14 0 001.077-1.135 1.135 1.135 0 00-1.077-1.135h-1.413a1.14 1.14 0 00-1.077 1.135 1.135 1.135 0 001.077 1.135zm19.727 50.75H49.927a1.14 1.14 0 00-1.139 1.137 1.135 1.135 0 001.139 1.137h12.246a1.14 1.14 0 001.14-1.137 1.136 1.136 0 00-1.14-1.136zm-18.314 0h-1.413a1.14 1.14 0 00-1.138 1.137 1.135 1.135 0 001.138 1.137h1.413a1.14 1.14 0 001.139-1.137 1.136 1.136 0 00-1.139-1.136zm4.933-6.436a1.132 1.132 0 001.135 1.133h12.246a1.141 1.141 0 001.108-.686 1.136 1.136 0 00-1.108-1.584H49.927a1.137 1.137 0 00-1.135 1.137zm-4.933-1.137h-1.413a1.14 1.14 0 00-1.077 1.135 1.135 1.135 0 001.077 1.135h1.413a1.14 1.14 0 001.077-1.135 1.136 1.136 0 00-1.077-1.135zm24.606-2.95v21.647a1.142 1.142 0 01-1.159 1.13 1.147 1.147 0 01-.57-.16l-6.917-4.187c-.134 0-7.548 4.747-7.51 4.354.02.383-7.368-4.334-7.508-4.354l-6.92 4.187a1.147 1.147 0 01-1.726-.97V53.554H15.429a8.447 8.447 0 01-5.957-2.468A8.415 8.415 0 017 45.14V19.903a1.145 1.145 0 011.17-1.128c.203.004.4.06.573.165l6.68 4.17 6.154-3.837V8.42a8.466 8.466 0 012.483-5.935A8.497 8.497 0 0130.003 0H60.04a8.444 8.444 0 015.957 2.467 8.412 8.412 0 012.47 5.946V22.78c3.691.314 7.13 2 9.637 4.724A14.749 14.749 0 0182 37.49c0 3.699-1.39 7.262-3.897 9.986a14.802 14.802 0 01-9.638 4.724zm-46.888-7.06V21.953l-5.56 3.46a1.14 1.14 0 01-1.206 0l-5.533-3.46V45.14a6.13 6.13 0 001.75 4.434 6.152 6.152 0 004.4 1.85 6.16 6.16 0 004.4-1.85 6.14 6.14 0 001.75-4.434zM36.155 8.413a6.141 6.141 0 00-1.804-4.34 6.164 6.164 0 00-4.348-1.8 6.16 6.16 0 00-4.347 1.8 6.138 6.138 0 00-1.801 4.34V45.14a8.373 8.373 0 01-2.672 6.14h14.972V8.413zM66.187 52.2c-3.691-.314-7.13-2-9.637-4.724a14.748 14.748 0 010-19.972 14.802 14.802 0 019.638-4.724V8.413a6.138 6.138 0 00-1.802-4.34 6.161 6.161 0 00-4.347-1.8H35.757a8.382 8.382 0 012.672 6.14v63.414a64.984 64.984 0 016.368-3.667c-.026-.393 7.374 4.334 7.508 4.334l6.923-4.16a1.134 1.134 0 011.179 0l5.78 3.496V52.2zm1.14-27.2a12.535 12.535 0 00-8.856 3.661 12.488 12.488 0 00-3.668 8.84 12.49 12.49 0 003.668 8.838A12.535 12.535 0 0067.326 50a12.54 12.54 0 008.856-3.66 12.488 12.488 0 003.668-8.84c0-3.315-1.32-6.494-3.668-8.839a12.535 12.535 0 00-8.856-3.66zm0 11.364c-1.854 0-2.793-.82-2.793-2.43-.066-2.687 4.492-3.297 5.414-.83a1.138 1.138 0 001.491.608 1.138 1.138 0 00.61-1.489 4.918 4.918 0 00-3.6-2.863c.056-.883.036-2.076-1.14-2.093-1.175-.017-1.195 1.21-1.138 2.09a4.68 4.68 0 00-3.117 1.76 4.663 4.663 0 00.805 6.554 4.685 4.685 0 003.45.956c1.864 0 2.806.82 2.806 2.43.067 2.687-4.492 3.297-5.414.83a1.134 1.134 0 00-1.49-.607c-2.14 1.457 1.303 4.127 2.96 4.334-.054.88-.037 2.073 1.139 2.093 1.175.02 1.195-1.207 1.138-2.087a4.678 4.678 0 003.055-1.779 4.66 4.66 0 00-.79-6.488 4.681 4.681 0 00-3.393-.996l.006.007z" fill="url(#paint0_linear_2_28)"/><path d="M49.927 17.277h12.246a1.14 1.14 0 011.14 1.136 1.136 1.136 0 01-1.14 1.137H49.927a1.14 1.14 0 01-1.139-1.137 1.136 1.136 0 011.139-1.136zm-7.48 2.273h1.412a1.14 1.14 0 001.139-1.137 1.136 1.136 0 00-1.139-1.136h-1.413a1.14 1.14 0 00-1.138 1.136 1.136 1.136 0 001.138 1.137zm7.48-7.577h12.246a1.14 1.14 0 001.078-1.135 1.135 1.135 0 00-1.078-1.135H49.927a1.14 1.14 0 00-1.077 1.135 1.136 1.136 0 001.077 1.135zm-7.48 15.15h9.207a1.14 1.14 0 001.077-1.135 1.135 1.135 0 00-1.077-1.134h-9.208a1.14 1.14 0 00-1.077 1.134 1.136 1.136 0 001.077 1.136zm0 7.574h6.17a1.14 1.14 0 001.078-1.135 1.135 1.135 0 00-1.077-1.135h-6.172a1.14 1.14 0 00-1.077 1.135 1.135 1.135 0 001.077 1.135zm0 7.577h6.17a1.14 1.14 0 001.14-1.137A1.136 1.136 0 0048.617 40h-6.17a1.14 1.14 0 00-1.14 1.137 1.136 1.136 0 001.14 1.137zm10.352 6.436a1.136 1.136 0 00-1.139-1.133h-9.214a1.142 1.142 0 00-1.107.686 1.136 1.136 0 001.107 1.584h9.208a1.14 1.14 0 001.138-1.137h.007zM42.446 11.973h1.413a1.14 1.14 0 001.077-1.135 1.135 1.135 0 00-1.077-1.135h-1.413a1.14 1.14 0 00-1.077 1.135 1.135 1.135 0 001.077 1.135zm19.727 50.75H49.927a1.14 1.14 0 00-1.139 1.137 1.135 1.135 0 001.139 1.137h12.246a1.14 1.14 0 001.14-1.137 1.136 1.136 0 00-1.14-1.136zm-18.314 0h-1.413a1.14 1.14 0 00-1.138 1.137 1.135 1.135 0 001.138 1.137h1.413a1.14 1.14 0 001.139-1.137 1.136 1.136 0 00-1.139-1.136zm4.933-6.436a1.132 1.132 0 001.135 1.133h12.246a1.141 1.141 0 001.108-.686 1.136 1.136 0 00-1.108-1.584H49.927a1.137 1.137 0 00-1.135 1.137zm-4.933-1.137h-1.413a1.14 1.14 0 00-1.077 1.135 1.135 1.135 0 001.077 1.135h1.413a1.14 1.14 0 001.077-1.135 1.136 1.136 0 00-1.077-1.135zm24.606-2.95v21.647a1.142 1.142 0 01-1.159 1.13 1.147 1.147 0 01-.57-.16l-6.917-4.187c-.134 0-7.548 4.747-7.51 4.354.02.383-7.368-4.334-7.508-4.354l-6.92 4.187a1.147 1.147 0 01-1.726-.97V53.554H15.429a8.447 8.447 0 01-5.957-2.468A8.415 8.415 0 017 45.14V19.903a1.145 1.145 0 011.17-1.128c.203.004.4.06.573.165l6.68 4.17 6.154-3.837V8.42a8.466 8.466 0 012.483-5.935A8.497 8.497 0 0130.003 0H60.04a8.444 8.444 0 015.957 2.467 8.412 8.412 0 012.47 5.946V22.78c3.691.314 7.13 2 9.637 4.724A14.749 14.749 0 0182 37.49c0 3.699-1.39 7.262-3.897 9.986a14.802 14.802 0 01-9.638 4.724zm-46.888-7.06V21.953l-5.56 3.46a1.14 1.14 0 01-1.206 0l-5.533-3.46V45.14a6.13 6.13 0 001.75 4.434 6.152 6.152 0 004.4 1.85 6.16 6.16 0 004.4-1.85 6.14 6.14 0 001.75-4.434zM36.155 8.413a6.141 6.141 0 00-1.804-4.34 6.164 6.164 0 00-4.348-1.8 6.16 6.16 0 00-4.347 1.8 6.138 6.138 0 00-1.801 4.34V45.14a8.373 8.373 0 01-2.672 6.14h14.972V8.413zM66.187 52.2c-3.691-.314-7.13-2-9.637-4.724a14.748 14.748 0 010-19.972 14.802 14.802 0 019.638-4.724V8.413a6.138 6.138 0 00-1.802-4.34 6.161 6.161 0 00-4.347-1.8H35.757a8.382 8.382 0 012.672 6.14v63.414a64.984 64.984 0 016.368-3.667c-.026-.393 7.374 4.334 7.508 4.334l6.923-4.16a1.134 1.134 0 011.179 0l5.78 3.496V52.2zm1.14-27.2a12.535 12.535 0 00-8.856 3.661 12.488 12.488 0 00-3.668 8.84 12.49 12.49 0 003.668 8.838A12.535 12.535 0 0067.326 50a12.54 12.54 0 008.856-3.66 12.488 12.488 0 003.668-8.84c0-3.315-1.32-6.494-3.668-8.839a12.535 12.535 0 00-8.856-3.66zm0 11.364c-1.854 0-2.793-.82-2.793-2.43-.066-2.687 4.492-3.297 5.414-.83a1.138 1.138 0 001.491.608 1.138 1.138 0 00.61-1.489 4.918 4.918 0 00-3.6-2.863c.056-.883.036-2.076-1.14-2.093-1.175-.017-1.195 1.21-1.138 2.09a4.68 4.68 0 00-3.117 1.76 4.663 4.663 0 00.805 6.554 4.685 4.685 0 003.45.956c1.864 0 2.806.82 2.806 2.43.067 2.687-4.492 3.297-5.414.83a1.134 1.134 0 00-1.49-.607c-2.14 1.457 1.303 4.127 2.96 4.334-.054.88-.037 2.073 1.139 2.093 1.175.02 1.195-1.207 1.138-2.087a4.678 4.678 0 003.055-1.779 4.66 4.66 0 00-.79-6.488 4.681 4.681 0 00-3.393-.996l.006.007z" stroke="url(#paint1_linear_2_28)" mask="url(#a)"/></g><defs><linearGradient id="paint0_linear_2_28" x1="22.835" y1="1.25" x2="44.5" y2="75.007" gradientUnits="userSpaceOnUse"><stop stop-color="#F36E2F"/><stop offset="1" stop-color="#FFA519"/></linearGradient><linearGradient id="paint1_linear_2_28" x1="44.5" y1="0" x2="44.5" y2="75.007" gradientUnits="userSpaceOnUse"><stop stop-color="#F36E2F"/><stop offset="1" stop-color="#FFA519"/></linearGradient><clipPath id="clip0_2_28"><path fill="#fff" d="M0 0h90v90H0z"/></clipPath></defs></svg>