<svg width="84" height="84" viewBox="0 0 84 84" fill="none" xmlns="http://www.w3.org/2000/svg"><g clip-path="url(#clip0_2_46)"><path d="M49.875 54.35L29.649 34.126 42 21.775 62.226 42 49.875 54.35zM33.351 34.126L49.875 50.65l8.65-8.65L42 25.476l-8.65 8.649z" fill="url(#paint0_linear_2_46)" stroke="url(#paint1_linear_2_46)"/><path d="M57.368 20.065l-1.856 1.857 6.561 6.561 1.856-1.856-6.561-6.562z" fill="url(#paint2_linear_2_46)" stroke="url(#paint3_linear_2_46)"/><path d="M61.305 16.124l-1.856 1.857 6.562 6.561 1.856-1.856-6.562-6.562z" fill="url(#paint4_linear_2_46)" stroke="url(#paint5_linear_2_46)"/><path d="M65.243 12.197l-1.856 1.856 6.561 6.561 1.856-1.856-6.561-6.561z" fill="url(#paint6_linear_2_46)" stroke="url(#paint7_linear_2_46)"/><path d="M69.18 8.256l-1.856 1.856 6.562 6.561 1.856-1.856-6.562-6.561z" fill="url(#paint8_linear_2_46)" stroke="url(#paint9_linear_2_46)"/><path d="M82.688 10.736l-4.07-.827-.34-4.173-4.174-.342-.853-4.082h-5.54L55.756 13.257a10.802 10.802 0 00-14.844.407L23.848 30.726a18.493 18.493 0 00-4.108 6.22 15.75 15.75 0 01-3.517 5.343L3.556 54.967a7.638 7.638 0 000 10.816l14.66 14.66a7.636 7.636 0 0010.816 0l12.704-12.705a15.75 15.75 0 015.342-3.517 18.493 18.493 0 006.222-4.109L70.363 43.05a10.802 10.802 0 00.407-14.844l11.918-11.918v-5.552zm-34.126 2.389a8.243 8.243 0 015.342 1.995l-4.843 4.843-5.25-5.25a8.269 8.269 0 014.752-1.588zM20.069 78.593L5.408 63.931a5.093 5.093 0 01-1.47-3.557 5.027 5.027 0 011.312-3.373L26.998 78.75a5.158 5.158 0 01-6.93-.157zM51.45 58.261a15.75 15.75 0 01-5.342 3.517 18.494 18.494 0 00-6.221 4.108L28.875 76.9 7.101 55.125l11.012-11.012a18.492 18.492 0 004.108-6.221 15.75 15.75 0 013.517-5.342l16.105-16.091L67.54 42.157 51.45 58.263zm19.425-22.825a8.269 8.269 0 01-1.549 4.778l-5.25-5.25 4.843-4.843a8.242 8.242 0 011.956 5.316zm9.188-20.225L62.186 33.088 50.912 21.814 68.788 3.937h2.336l.814 3.938 3.938.328.315 3.938 3.937.8-.066 2.27z" fill="url(#paint10_linear_2_46)" stroke="url(#paint11_linear_2_46)"/><path d="M42 59.063a3.937 3.937 0 110-7.875 3.937 3.937 0 010 7.874zm0-5.25a1.313 1.313 0 100 2.625 1.313 1.313 0 000-2.626z" fill="url(#paint12_linear_2_46)"/><path d="M35.438 65.625a3.937 3.937 0 110-7.875 3.937 3.937 0 010 7.875zm0-5.25a1.313 1.313 0 100 2.626 1.313 1.313 0 000-2.626z" fill="url(#paint13_linear_2_46)"/><path d="M28.875 72.188a3.937 3.937 0 110-7.875 3.937 3.937 0 010 7.874zm0-5.25a1.313 1.313 0 100 2.625 1.313 1.313 0 000-2.626z" fill="url(#paint14_linear_2_46)"/><path d="M35.438 52.5a3.937 3.937 0 110-7.875 3.937 3.937 0 010 7.875zm0-5.25a1.313 1.313 0 100 2.626 1.313 1.313 0 000-2.626z" fill="url(#paint15_linear_2_46)"/><path d="M28.875 59.063a3.937 3.937 0 110-7.875 3.937 3.937 0 010 7.874zm0-5.25a1.313 1.313 0 100 2.625 1.313 1.313 0 000-2.626z" fill="url(#paint16_linear_2_46)"/><path d="M22.313 65.625a3.937 3.937 0 110-7.875 3.937 3.937 0 010 7.875zm0-5.25a1.313 1.313 0 100 2.626 1.313 1.313 0 000-2.626z" fill="url(#paint17_linear_2_46)"/><path d="M28.875 45.938a3.937 3.937 0 110-7.875 3.937 3.937 0 010 7.874zm0-5.25a1.313 1.313 0 100 2.625 1.313 1.313 0 000-2.626z" fill="url(#paint18_linear_2_46)"/><path d="M22.313 52.5a3.937 3.937 0 110-7.875 3.937 3.937 0 010 7.875zm0-5.25a1.313 1.313 0 100 2.626 1.313 1.313 0 000-2.626z" fill="url(#paint19_linear_2_46)"/><path d="M15.75 59.063a3.937 3.937 0 110-7.875 3.937 3.937 0 010 7.874zm0-5.25a1.313 1.313 0 100 2.625 1.313 1.313 0 000-2.626z" fill="url(#paint20_linear_2_46)"/></g><defs><linearGradient id="paint0_linear_2_46" x1="45.938" y1="21.774" x2="45.938" y2="54.351" gradientUnits="userSpaceOnUse"><stop stop-color="#F36E2F"/><stop offset="1" stop-color="#FFA519"/></linearGradient><linearGradient id="paint1_linear_2_46" x1="45.938" y1="21.774" x2="45.938" y2="54.351" gradientUnits="userSpaceOnUse"><stop stop-color="#F36E2F"/><stop offset="1" stop-color="#FFA519"/></linearGradient><linearGradient id="paint2_linear_2_46" x1="56.44" y1="20.993" x2="63.001" y2="27.555" gradientUnits="userSpaceOnUse"><stop stop-color="#F36E2F"/><stop offset="1" stop-color="#FFA519"/></linearGradient><linearGradient id="paint3_linear_2_46" x1="56.44" y1="20.993" x2="63.001" y2="27.555" gradientUnits="userSpaceOnUse"><stop stop-color="#F36E2F"/><stop offset="1" stop-color="#FFA519"/></linearGradient><linearGradient id="paint4_linear_2_46" x1="60.377" y1="17.052" x2="66.939" y2="23.614" gradientUnits="userSpaceOnUse"><stop stop-color="#F36E2F"/><stop offset="1" stop-color="#FFA519"/></linearGradient><linearGradient id="paint5_linear_2_46" x1="60.377" y1="17.052" x2="66.939" y2="23.614" gradientUnits="userSpaceOnUse"><stop stop-color="#F36E2F"/><stop offset="1" stop-color="#FFA519"/></linearGradient><linearGradient id="paint6_linear_2_46" x1="64.315" y1="13.124" x2="70.876" y2="19.686" gradientUnits="userSpaceOnUse"><stop stop-color="#F36E2F"/><stop offset="1" stop-color="#FFA519"/></linearGradient><linearGradient id="paint7_linear_2_46" x1="64.315" y1="13.124" x2="70.876" y2="19.686" gradientUnits="userSpaceOnUse"><stop stop-color="#F36E2F"/><stop offset="1" stop-color="#FFA519"/></linearGradient><linearGradient id="paint8_linear_2_46" x1="68.252" y1="9.184" x2="74.814" y2="15.745" gradientUnits="userSpaceOnUse"><stop stop-color="#F36E2F"/><stop offset="1" stop-color="#FFA519"/></linearGradient><linearGradient id="paint9_linear_2_46" x1="68.252" y1="9.184" x2="74.814" y2="15.745" gradientUnits="userSpaceOnUse"><stop stop-color="#F36E2F"/><stop offset="1" stop-color="#FFA519"/></linearGradient><linearGradient id="paint10_linear_2_46" x1="42" y1="1.313" x2="42" y2="82.687" gradientUnits="userSpaceOnUse"><stop stop-color="#F36E2F"/><stop offset="1" stop-color="#FFA519"/></linearGradient><linearGradient id="paint11_linear_2_46" x1="42" y1="1.313" x2="42" y2="82.687" gradientUnits="userSpaceOnUse"><stop stop-color="#F36E2F"/><stop offset="1" stop-color="#FFA519"/></linearGradient><linearGradient id="paint12_linear_2_46" x1="42" y1="51.188" x2="42" y2="59.063" gradientUnits="userSpaceOnUse"><stop stop-color="#F36E2F"/><stop offset="1" stop-color="#FFA519"/></linearGradient><linearGradient id="paint13_linear_2_46" x1="35.438" y1="57.75" x2="35.438" y2="65.625" gradientUnits="userSpaceOnUse"><stop stop-color="#F36E2F"/><stop offset="1" stop-color="#FFA519"/></linearGradient><linearGradient id="paint14_linear_2_46" x1="28.875" y1="64.313" x2="28.875" y2="72.188" gradientUnits="userSpaceOnUse"><stop stop-color="#F36E2F"/><stop offset="1" stop-color="#FFA519"/></linearGradient><linearGradient id="paint15_linear_2_46" x1="35.438" y1="44.625" x2="35.438" y2="52.5" gradientUnits="userSpaceOnUse"><stop stop-color="#F36E2F"/><stop offset="1" stop-color="#FFA519"/></linearGradient><linearGradient id="paint16_linear_2_46" x1="28.875" y1="51.188" x2="28.875" y2="59.063" gradientUnits="userSpaceOnUse"><stop stop-color="#F36E2F"/><stop offset="1" stop-color="#FFA519"/></linearGradient><linearGradient id="paint17_linear_2_46" x1="22.313" y1="57.75" x2="22.313" y2="65.625" gradientUnits="userSpaceOnUse"><stop stop-color="#F36E2F"/><stop offset="1" stop-color="#FFA519"/></linearGradient><linearGradient id="paint18_linear_2_46" x1="28.875" y1="38.063" x2="28.875" y2="45.938" gradientUnits="userSpaceOnUse"><stop stop-color="#F36E2F"/><stop offset="1" stop-color="#FFA519"/></linearGradient><linearGradient id="paint19_linear_2_46" x1="22.313" y1="44.625" x2="22.313" y2="52.5" gradientUnits="userSpaceOnUse"><stop stop-color="#F36E2F"/><stop offset="1" stop-color="#FFA519"/></linearGradient><linearGradient id="paint20_linear_2_46" x1="15.75" y1="51.188" x2="15.75" y2="59.063" gradientUnits="userSpaceOnUse"><stop stop-color="#F36E2F"/><stop offset="1" stop-color="#FFA519"/></linearGradient><clipPath id="clip0_2_46"><path fill="#fff" d="M0 0h84v84H0z"/></clipPath></defs></svg>