<svg width="81" height="81" viewBox="0 0 81 81" fill="none" xmlns="http://www.w3.org/2000/svg"><path d="M40.5 69.202a4.94 4.94 0 01-4.014-2.025c-6.82-9.21-18.261-26.009-18.261-35.057a22.275 22.275 0 1144.55 0c0 9.048-11.441 25.848-18.261 35.057a4.942 4.942 0 01-4.014 2.025zm0-55.306A18.245 18.245 0 0022.275 32.12c0 5.67 6.529 17.881 17.464 32.648a.948.948 0 001.522 0C52.196 50 58.725 37.793 58.725 32.12A18.245 18.245 0 0040.5 13.896z" fill="url(#paint0_linear_2_40)"/><path d="M69.13 71.017H11.87a2.025 2.025 0 010-4.05h57.26a2.025 2.025 0 110 4.05z" fill="url(#paint1_linear_2_40)"/><path d="M40.5 32.57a7.088 7.088 0 117.087-7.087A7.095 7.095 0 0140.5 32.57zm0-10.125a3.038 3.038 0 100 6.075 3.038 3.038 0 000-6.075z" fill="url(#paint2_linear_2_40)"/><path d="M60.75 62.775H46.64a2.025 2.025 0 110-4.05h14.11a2.025 2.025 0 110 4.05z" fill="url(#paint3_linear_2_40)"/><path d="M34.36 62.775H20.25a2.025 2.025 0 110-4.05h14.11a2.025 2.025 0 110 4.05z" fill="url(#paint4_linear_2_40)"/><defs><linearGradient id="paint0_linear_2_40" x1="40.5" y1="9.845" x2="40.5" y2="69.202" gradientUnits="userSpaceOnUse"><stop stop-color="#F36E2F"/><stop offset="1" stop-color="#FFA519"/></linearGradient><linearGradient id="paint1_linear_2_40" x1="40.5" y1="66.967" x2="40.5" y2="71.017" gradientUnits="userSpaceOnUse"><stop stop-color="#F36E2F"/><stop offset="1" stop-color="#FFA519"/></linearGradient><linearGradient id="paint2_linear_2_40" x1="40.5" y1="18.395" x2="40.5" y2="32.57" gradientUnits="userSpaceOnUse"><stop stop-color="#F36E2F"/><stop offset="1" stop-color="#FFA519"/></linearGradient><linearGradient id="paint3_linear_2_40" x1="53.695" y1="58.725" x2="53.695" y2="62.775" gradientUnits="userSpaceOnUse"><stop stop-color="#F36E2F"/><stop offset="1" stop-color="#FFA519"/></linearGradient><linearGradient id="paint4_linear_2_40" x1="27.305" y1="58.725" x2="27.305" y2="62.775" gradientUnits="userSpaceOnUse"><stop stop-color="#F36E2F"/><stop offset="1" stop-color="#FFA519"/></linearGradient></defs></svg>