<svg width="40" height="41" viewBox="0 0 40 41" fill="none" xmlns="http://www.w3.org/2000/svg"><path fill-rule="evenodd" clip-rule="evenodd" d="M24.445 8.038c-1.15-.078-2.576-.078-4.407-.078h-.076c-1.831 0-3.258 0-4.407.078-1.167.08-2.122.244-3 .607a9 9 0 00-4.87 4.87c-.363.878-.527 1.833-.607 3C7 17.665 7 19.09 7 20.922v.075c0 1.832 0 3.259.078 4.408.08 1.167.244 2.122.607 3a9 9 0 004.87 4.87c.878.363 1.833.527 3 .607 1.15.078 2.575.078 4.407.078h.076c1.832 0 3.258 0 4.407-.078 1.167-.08 2.122-.244 3-.607a9 9 0 004.87-4.87c.363-.878.527-1.833.607-3C33 24.255 33 22.83 33 20.997v-.075c0-1.832 0-3.258-.078-4.407-.08-1.167-.244-2.122-.607-3a9 9 0 00-4.87-4.87c-.878-.363-1.833-.527-3-.607zM20 14.96a6 6 0 000 12 1 1 0 110 2 8 8 0 118-8c0 1.155-.369 2.017-.964 2.588a2.635 2.635 0 01-1.786.745 2.444 2.444 0 01-1.664-.614 4.5 4.5 0 11.914-2.719c0 .277.068.684.23.983.075.14.154.224.223.271.059.04.145.08.297.08a.65.65 0 00.401-.189c.134-.129.349-.433.349-1.145a6 6 0 00-6-6z" fill="#2E459C"/><path d="M20 18.46a2.5 2.5 0 110 5 2.5 2.5 0 010-5z" fill="#2E459C"/></svg>