<svg width="40" height="41" viewBox="0 0 40 41" fill="none" xmlns="http://www.w3.org/2000/svg"><path d="M17.667 16.636c0-1.365 1.07-2.422 2.333-2.422 1.262 0 2.333 1.057 2.333 2.422 0 1.364-1.07 2.422-2.333 2.422-1.262 0-2.333-1.058-2.333-2.422z" fill="#2E459C"/><path fill-rule="evenodd" clip-rule="evenodd" d="M17.764 31.399c.477.433.876.78 1.155 1.02l.367.372a1 1 0 001.428 0l.367-.373a53.75 53.75 0 004.659-4.5c1.273-1.395 2.57-2.994 3.554-4.625.972-1.61 1.706-3.361 1.706-5.035C31 12.11 26.094 7.09 20 7.09S9 12.11 9 18.258c0 1.674.734 3.424 1.706 5.035.984 1.63 2.281 3.23 3.555 4.625a53.75 53.75 0 003.503 3.48zm-2.097-14.763c0-2.413 1.913-4.417 4.333-4.417s4.333 2.004 4.333 4.417c0 2.412-1.913 4.416-4.333 4.416s-4.333-2.004-4.333-4.416z" fill="#2E459C"/></svg>