<svg width="48" height="48" viewBox="0 0 48 48" fill="none" xmlns="http://www.w3.org/2000/svg"><circle cx="24" cy="24" r="24" fill="url(#paint0_linear_30_6)"/><path d="M22.995 16.111c-.802-1.036-2.214-1.387-3.424-.884-.169.07-.346.17-.589.309l-.025.014-.014.008-.013.008c-.539.336-.892.848-1.126 1.363-.234.518-.37 1.087-.45 1.61-.146.968-.114 1.912-.051 2.303a3.216 3.216 0 00.044.343c.042.24.12.582.268 1.035.294.905.861 2.256 1.96 4.123 1.1 1.867 2.063 3.117 2.762 3.908.35.395.634.675.835.861a6.124 6.124 0 00.308.266l.019.014a8.356 8.356 0 002.294 1.286c.933.333 2.118.523 3.17-.016l.015-.007.014-.008.036-.02c.236-.134.412-.233.557-.34 1.057-.782 1.458-2.175.94-3.384a5.277 5.277 0 00-.306-.565l-.022-.037-.23-.391-.019-.032c-.233-.395-.418-.71-.598-.95-.237-.314-.552-.498-.793-.613-.333-.16-.704-.224-1.034-.254-.335-.03-.69-.03-1.01-.03l-.082.001c-.3.002-.567.003-.813-.012-.272-.017-.456-.05-.572-.096a1.655 1.655 0 01-.186-.085.732.732 0 01-.125-.08c-.194-.164-.703-.637-1.175-1.44-.553-.94-.629-1.6-.634-1.66-.01-.176.007-.352.05-.523a2.6 2.6 0 01.236-.553c.089-.167.185-.334.29-.515l.148-.255a7.97 7.97 0 00.448-.88c.124-.3.233-.658.228-1.033a1.899 1.899 0 00-.112-.65c-.119-.316-.326-.667-.588-1.112l-.034-.057-.23-.392-.025-.042a5.236 5.236 0 00-.342-.536z" fill="#fff"/><defs><linearGradient id="paint0_linear_30_6" x1="40" y1="0" x2="9.6" y2="48" gradientUnits="userSpaceOnUse"><stop stop-color="#2E459C"/><stop offset="1" stop-color="#04E8F4"/></linearGradient></defs></svg>