<svg width="40" height="41" viewBox="0 0 40 41" fill="none" xmlns="http://www.w3.org/2000/svg"><path d="M18.66 9.897c-1.07-1.382-2.952-1.85-4.565-1.178a7.657 7.657 0 00-.785.41l-.034.02-.019.01-.018.012c-.717.447-1.188 1.13-1.5 1.817-.313.69-.495 1.449-.6 2.147-.195 1.29-.152 2.548-.068 3.07l.006.08c.01.093.025.218.053.378.056.32.16.775.356 1.379.392 1.207 1.15 3.008 2.614 5.497 1.466 2.49 2.75 4.156 3.683 5.211.467.527.845.901 1.114 1.148a8.185 8.185 0 00.41.355l.025.019a11.14 11.14 0 003.06 1.714c1.242.444 2.822.698 4.226-.02l.019-.01.018-.01.049-.028c.315-.178.549-.31.742-.454 1.41-1.042 1.945-2.899 1.254-4.511a7.01 7.01 0 00-.408-.753l-.03-.05-.306-.521-.025-.042c-.31-.527-.558-.948-.798-1.267-.315-.42-.735-.664-1.057-.818-.444-.213-.938-.299-1.378-.339a14.63 14.63 0 00-1.347-.038h-.11c-.399.002-.755.004-1.083-.016-.363-.022-.608-.068-.764-.128a2.184 2.184 0 01-.248-.114.98.98 0 01-.166-.106c-.26-.219-.937-.85-1.567-1.92-.738-1.253-.838-2.133-.846-2.213-.012-.235.01-.47.067-.698.043-.176.144-.415.315-.737.118-.223.247-.445.388-.687l.196-.34c.207-.362.43-.766.598-1.173.165-.4.31-.878.303-1.377a2.533 2.533 0 00-.148-.868c-.16-.42-.435-.888-.785-1.482l-.044-.076-.308-.522-.033-.056c-.176-.298-.31-.527-.456-.715z" fill="#2E459C"/></svg>